<?xml version="1.0" encoding="utf-8"?>
<!-- Generator: Adobe Illustrator 16.0.0, SVG Export Plug-In . SVG Version: 6.00 Build 0)  -->
<!DOCTYPE svg PUBLIC "-//W3C//DTD SVG 1.1//EN" "http://www.w3.org/Graphics/SVG/1.1/DTD/svg11.dtd">
<svg version="1.1" id="Layer_1" xmlns="http://www.w3.org/2000/svg" xmlns:xlink="http://www.w3.org/1999/xlink" x="0px" y="0px"
	 width="300px" height="300px" viewBox="0 0 300 300" enable-background="new 0 0 300 300" xml:space="preserve">
<g>
	<g>
		<path d="M157.221,129.284c-0.158,0-0.315-0.015-0.473-0.044c-0.702-0.132-1.318-0.551-1.698-1.156l-38.487-61.298
			c-0.542-0.862-0.521-1.963,0.052-2.805c0.573-0.842,1.589-1.262,2.591-1.077l96.578,18.122c1.002,0.188,1.796,0.95,2.025,1.942
			c0.229,0.992-0.151,2.026-0.969,2.633l-58.091,43.177C158.305,129.109,157.767,129.284,157.221,129.284z M124.019,69.023
			l33.898,53.987l51.163-38.027L124.019,69.023z"/>
	</g>
	<g>
		<path d="M148.69,174.759c-0.157,0-0.316-0.015-0.476-0.044c-1.391-0.262-2.307-1.601-2.046-2.992l8.94-47.646
			c0.261-1.392,1.602-2.31,2.991-2.047c1.392,0.262,2.308,1.601,2.046,2.992l-8.94,47.646
			C150.975,173.899,149.899,174.759,148.69,174.759z"/>
	</g>
	<g>
		<path d="M164.942,179.596c-0.157,0-0.316-0.015-0.476-0.045l-35.218-6.607c-1.391-0.261-2.308-1.601-2.046-2.992
			c0.261-1.391,1.599-2.308,2.992-2.046l35.217,6.607c1.392,0.261,2.308,1.601,2.047,2.991
			C167.227,178.735,166.151,179.596,164.942,179.596z"/>
	</g>
	<g>
		<path d="M181.669,106.339c-4.756,0-10.688-1.438-17.34-6.164c-14.262-10.132-27.834-7.826-27.969-7.8
			c-1.394,0.25-2.726-0.673-2.978-2.066c-0.252-1.393,0.673-2.726,2.066-2.978c0.639-0.115,15.849-2.702,31.849,8.665
			c13.488,9.584,22.868,3.037,23.262,2.755c1.143-0.825,2.743-0.577,3.574,0.559c0.832,1.136,0.599,2.726-0.531,3.565
			C193.297,103.102,188.806,106.339,181.669,106.339z"/>
	</g>
	<g>
		
			<rect x="160.879" y="90.99" transform="matrix(0.5646 0.8254 -0.8254 0.5646 153.6958 -95.8098)" fill="#9FD142" width="13.556" height="13.556"/>
		<path d="M165.891,109.112c-0.613,0-1.216-0.293-1.589-0.837l-7.653-11.189c-0.599-0.876-0.375-2.072,0.502-2.672l11.189-7.653
			c0.876-0.598,2.072-0.374,2.672,0.502l7.653,11.189c0.599,0.876,0.374,2.072-0.502,2.671l-11.189,7.653
			C166.643,109.003,166.265,109.112,165.891,109.112z M160.907,96.502l5.482,8.017l8.017-5.483l-5.482-8.016L160.907,96.502z"/>
	</g>
	<g>
		<g id="XMLID_4_">
			<g>
				<path d="M212.063,52.276c0.659,0.982,0.413,2.323-0.57,2.994l-12.501,8.546c-0.368,0.257-0.793,0.369-1.206,0.369
					c-0.682,0-1.352-0.324-1.776-0.928l-8.546-12.501c-0.671-0.983-0.425-2.313,0.559-2.982l12.501-8.558
					c0.982-0.659,2.313-0.414,2.982,0.559L212.063,52.276z M207.303,52.936l-6.133-8.96l-8.948,6.122l6.122,8.96L207.303,52.936z"/>
				<polygon fill="#FFF200" points="201.17,43.976 207.303,52.936 198.344,59.058 192.222,50.098 				"/>
			</g>
		</g>
	</g>
	<g>
		
			<rect x="158.147" y="51.008" transform="matrix(0.5646 0.8254 -0.8254 0.5646 117.1734 -110.2422)" fill="#27AAE1" width="9.861" height="9.862"/>
		<path d="M161.792,64.19c-0.445,0-0.884-0.213-1.155-0.609l-5.567-8.139c-0.435-0.637-0.272-1.507,0.365-1.943l8.139-5.567
			c0.638-0.435,1.508-0.271,1.944,0.365l5.566,8.139c0.436,0.638,0.272,1.508-0.365,1.943l-8.139,5.567
			C162.339,64.111,162.064,64.19,161.792,64.19z M158.167,55.018l3.988,5.831l5.831-3.988l-3.988-5.831L158.167,55.018z"/>
	</g>
	<g>
		
			<rect x="166.095" y="34.019" transform="matrix(0.5646 0.8254 -0.8254 0.5646 106.4847 -124.1608)" fill="#F58320" width="9.653" height="9.653"/>
		<path d="M169.665,46.924c-0.438,0-0.866-0.208-1.132-0.596l-5.45-7.969c-0.427-0.623-0.267-1.476,0.357-1.902l7.968-5.45
			c0.625-0.426,1.477-0.266,1.903,0.357l5.45,7.968c0.426,0.624,0.267,1.477-0.357,1.903l-7.969,5.45
			C170.199,46.847,169.931,46.924,169.665,46.924z M166.115,37.944l3.905,5.708l5.708-3.904l-3.904-5.709L166.115,37.944z"/>
	</g>
</g>
<g>
	<path d="M43.042,235.265c-0.199-3.762-0.458-6.83-0.78-9.206c4.85,2.203,9.255,3.304,13.215,3.304c1.583,0,3.062-0.241,4.436-0.724
		s2.388-1.163,3.044-2.042c0.655-0.878,0.983-1.861,0.983-2.951c0-0.841-0.158-1.596-0.473-2.264
		c-0.473-0.915-1.261-1.868-2.365-2.858c-1.415-1.36-3.938-3.601-7.571-6.719c-1.731-1.509-2.926-2.585-3.584-3.229
		c-1.485-1.41-2.624-2.678-3.415-3.805c-0.792-1.126-1.361-2.245-1.708-3.359c-0.347-1.113-0.52-2.301-0.52-3.563
		c0-2.325,0.65-4.51,1.949-6.552c1.299-2.041,3.241-3.638,5.828-4.788c2.585-1.15,5.846-1.726,9.781-1.726
		c3.539,0,7.522,0.433,11.953,1.299c0.124,2.574,0.371,5.519,0.742,8.834c-3.853-1.484-7.409-2.227-10.669-2.227
		c-2.421,0-4.403,0.551-5.946,1.651c-1.544,1.102-2.315,2.383-2.315,3.842c0,0.396,0.053,0.812,0.161,1.244s0.269,0.854,0.484,1.262
		c0.215,0.408,0.599,0.94,1.15,1.597c0.552,0.655,1.359,1.423,2.422,2.301c1.063,0.879,1.971,1.591,2.724,2.135l4.58,4.157
		c1.161,0.965,2.198,1.906,3.112,2.821s1.698,1.794,2.353,2.635c0.654,0.842,1.167,1.646,1.538,2.413
		c0.371,0.768,0.648,1.554,0.834,2.357c0.185,0.805,0.278,1.651,0.278,2.542c0,2.079-0.483,4.041-1.448,5.884
		c-0.965,1.844-2.352,3.359-4.157,4.547c-1.807,1.188-3.787,2.011-5.939,2.469s-4.43,0.687-6.83,0.687
		c-1.584,0-3.428-0.136-5.531-0.408C49.252,236.551,46.481,236.031,43.042,235.265z"/>
	<path d="M82.648,236.341l0.886-12.063l0.886-17.261l0.517-21.344c2.18,0.05,3.989,0.074,5.426,0.074
		c1.883,0,3.679-0.024,5.389-0.074l-0.67,8.834c-0.149,2.178-0.347,5.68-0.596,10.505c0.792-1.188,1.454-2.078,1.986-2.672
		c0.533-0.595,1.126-1.145,1.783-1.652c0.655-0.507,1.33-0.934,2.023-1.28c0.693-0.347,1.504-0.655,2.432-0.929
		c0.928-0.271,1.961-0.482,3.1-0.631s2.302-0.223,3.49-0.223c2.054,0,4.028,0.235,5.921,0.705c1.893,0.471,3.527,1.263,4.9,2.376
		c1.373,1.113,2.314,2.419,2.821,3.916c0.507,1.498,0.761,3.063,0.761,4.695c0,1.064-0.063,2.723-0.188,4.975l-0.9,16.221
		c-0.076,1.684-0.113,3.626-0.113,5.828c-2.002-0.049-3.77-0.074-5.302-0.074c-1.656,0-3.547,0.025-5.673,0.074
		c0.343-2.92,0.68-6.904,1.01-11.952c0.331-5.049,0.496-8.637,0.496-10.765c0-1.955-0.315-3.483-0.945-4.585
		c-0.63-1.101-1.557-1.917-2.779-2.449s-2.563-0.798-4.02-0.798c-1.878,0-3.533,0.334-4.965,1.002
		c-1.384,0.644-2.545,1.608-3.483,2.896c-0.766,1.063-1.408,2.586-1.927,4.565c-0.543,2.078-0.938,5.296-1.186,9.651
		c-0.126,2.104-0.265,6.248-0.416,12.435c-1.957-0.049-3.642-0.074-5.054-0.074C86.921,236.267,85.05,236.292,82.648,236.341z"/>
	<path d="M134.393,206.868c0.346-1.782,0.563-3.031,0.649-3.749c0.086-0.718,0.241-1.807,0.464-3.267
		c3.365-0.792,6.335-1.349,8.909-1.671c2.574-0.321,5.061-0.482,7.46-0.482c2.723,0,5.222,0.315,7.499,0.947
		c2.276,0.631,4.058,1.64,5.345,3.024c1.287,1.387,1.931,3.378,1.931,5.977c0,1.41-0.197,5.005-0.59,10.783
		c-0.394,5.778-0.627,11.748-0.701,17.91c-1.882-0.049-3.616-0.074-5.2-0.074c-1.512,0-3.282,0.025-5.313,0.074
		c0.324-2.994,0.588-6.459,0.787-10.394l0.488-9.242c-0.94,0.618-1.658,1.052-2.154,1.299c-0.495,0.247-1.053,0.477-1.672,0.687
		c-0.619,0.211-1.709,0.532-3.27,0.965c-1.56,0.434-2.811,0.812-3.752,1.133s-1.79,0.687-2.545,1.095
		c-0.756,0.408-1.394,0.866-1.913,1.373c-0.521,0.508-0.898,1.04-1.133,1.597c-0.236,0.557-0.353,1.157-0.353,1.8
		c0,1.04,0.303,1.937,0.91,2.691c0.606,0.755,1.367,1.28,2.283,1.577c0.916,0.298,1.992,0.446,3.229,0.446
		c0.792,0,1.627-0.062,2.505-0.186s2.061-0.433,3.544-0.929c-0.52,1.411-1.125,3.515-1.818,6.311
		c-1.757,0.297-3.155,0.482-4.194,0.557s-2.004,0.111-2.896,0.111c-3.118,0-5.679-0.421-7.684-1.262s-3.483-2.178-4.436-4.009
		c-0.953-1.831-1.429-3.675-1.429-5.531c0-1.063,0.186-2.115,0.557-3.155c0.371-1.039,0.917-1.991,1.634-2.857
		c0.718-0.866,1.647-1.701,2.786-2.506c1.139-0.804,2.786-1.584,4.939-2.339c2.154-0.754,5.002-1.516,8.543-2.282
		c0.94-0.198,1.919-0.439,2.934-0.725c1.015-0.284,1.827-0.563,2.433-0.835c0.606-0.271,1.133-0.624,1.578-1.058
		c0.445-0.433,0.773-0.885,0.984-1.355c0.21-0.47,0.315-0.952,0.315-1.447c0-0.965-0.315-1.781-0.947-2.45
		c-0.631-0.668-1.448-1.132-2.451-1.392c-1.004-0.26-2.112-0.39-3.325-0.39C144.818,203.639,139.841,204.715,134.393,206.868z"/>
	<path d="M174.63,236.341l0.739-9.651l0.85-18.522l0.407-15.85c0.049-2.871,0.073-5.086,0.073-6.645
		c2.592,0.05,4.43,0.074,5.517,0.074c1.283,0,2.974-0.024,5.072-0.074l-0.776,12.063l-0.887,19.229l-0.37,14.365l-0.037,5.011
		c-2.196-0.049-3.925-0.074-5.183-0.074C178.604,236.267,176.802,236.292,174.63,236.341z M186.434,215.201l7.565-9.195
		c0.646-0.791,1.417-1.767,2.311-2.929c0.895-1.162,2.025-2.657,3.393-4.486c2.569,0.05,4.447,0.074,5.634,0.074
		c1.632,0,3.694-0.024,6.19-0.074l-12.232,14.015l-2.193,2.67c1.809,2.873,6.828,9.896,15.057,21.065
		c-2.229-0.049-4.138-0.074-5.724-0.074s-3.556,0.025-5.909,0.074c-1.438-2.353-2.609-4.241-3.514-5.665
		c-0.905-1.425-1.741-2.67-2.509-3.734l-6.32-9.028C188.008,217.666,187.425,216.762,186.434,215.201z"/>
	<path d="M250.057,227.915c-0.321,1.46-0.779,4.083-1.373,7.869c-2.673,0.568-4.925,0.952-6.756,1.15s-3.675,0.297-5.53,0.297
		c-3.242,0-6.144-0.321-8.705-0.964s-4.807-1.823-6.737-3.542c-1.93-1.718-3.354-3.825-4.269-6.322
		c-0.916-2.497-1.373-5.118-1.373-7.862c0-3.04,0.531-5.988,1.596-8.845c1.063-2.855,2.555-5.191,4.473-7.009
		s4.103-3.104,6.552-3.857c2.45-0.754,5.012-1.131,7.684-1.131c2.524,0,4.925,0.315,7.201,0.945s4.188,1.661,5.735,3.094
		c1.546,1.433,2.734,3.155,3.563,5.168s1.243,4.255,1.243,6.725c0,1.161-0.124,2.358-0.371,3.594l-27.208,0.037
		c-0.05,0.915-0.074,1.646-0.074,2.189c0,1.658,0.284,3.181,0.854,4.566c0.568,1.386,1.397,2.561,2.487,3.526
		c1.088,0.965,2.388,1.677,3.897,2.134c1.509,0.458,2.993,0.687,4.454,0.687c1.707,0,3.557-0.186,5.549-0.557
		S247.311,228.806,250.057,227.915z M226.078,212.918l17.372,0.037c0-1.183-0.037-2.058-0.111-2.625
		c-0.074-0.566-0.242-1.213-0.502-1.94c-0.26-0.727-0.612-1.367-1.058-1.922s-0.965-1.017-1.559-1.386
		c-0.594-0.37-1.281-0.653-2.061-0.851s-1.614-0.296-2.506-0.296c-1.039,0-2.048,0.161-3.024,0.48
		c-0.979,0.32-1.875,0.789-2.691,1.405s-1.479,1.306-1.986,2.069c-0.507,0.765-0.885,1.498-1.132,2.2
		C226.572,210.793,226.325,211.735,226.078,212.918z"/>
</g>
</svg>
