<?xml version="1.0" encoding="utf-8"?>
<!-- Generator: Adobe Illustrator 16.0.0, SVG Export Plug-In . SVG Version: 6.00 Build 0)  -->
<!DOCTYPE svg PUBLIC "-//W3C//DTD SVG 1.1//EN" "http://www.w3.org/Graphics/SVG/1.1/DTD/svg11.dtd">
<svg version="1.1" id="Layer_1" xmlns="http://www.w3.org/2000/svg" xmlns:xlink="http://www.w3.org/1999/xlink" x="0px" y="0px"
	 width="449px" height="217px" viewBox="0 0 449 217" enable-background="new 0 0 449 217" xml:space="preserve">
<g>
	<g>
		<path fill="#1C1C1C" d="M358.053,126.535c-0.158,0-0.315-0.015-0.473-0.044c-0.703-0.132-1.318-0.551-1.698-1.156l-38.487-61.298
			c-0.542-0.862-0.521-1.964,0.052-2.805c0.573-0.842,1.589-1.263,2.591-1.077l96.578,18.122c1.002,0.188,1.796,0.95,2.025,1.942
			c0.229,0.992-0.151,2.026-0.969,2.633l-58.091,43.177C359.136,126.359,358.599,126.535,358.053,126.535z M324.852,66.273
			l33.897,53.988l51.163-38.027L324.852,66.273z"/>
	</g>
	<g>
		<path fill="#1C1C1C" d="M349.522,172.01c-0.157,0-0.316-0.015-0.476-0.045c-1.392-0.261-2.308-1.601-2.046-2.991l8.94-47.646
			c0.261-1.392,1.602-2.31,2.99-2.047c1.393,0.261,2.309,1.601,2.047,2.991l-8.94,47.646
			C351.807,171.149,350.73,172.01,349.522,172.01z"/>
	</g>
	<g>
		<path fill="#1C1C1C" d="M365.774,176.846c-0.157,0-0.316-0.014-0.476-0.044l-35.218-6.608c-1.392-0.261-2.308-1.601-2.047-2.991
			s1.599-2.308,2.992-2.047l35.217,6.608c1.392,0.261,2.308,1.601,2.047,2.991C368.059,175.986,366.983,176.846,365.774,176.846z"/>
	</g>
	<g>
		<path fill="#1C1C1C" d="M382.501,103.59c-4.756,0-10.688-1.438-17.34-6.164c-14.262-10.132-27.835-7.826-27.969-7.8
			c-1.394,0.25-2.727-0.674-2.978-2.066c-0.252-1.393,0.672-2.726,2.065-2.979c0.64-0.114,15.849-2.702,31.849,8.666
			c13.488,9.583,22.868,3.037,23.262,2.754c1.143-0.825,2.743-0.577,3.574,0.56c0.832,1.136,0.599,2.725-0.531,3.564
			C394.129,100.353,389.637,103.589,382.501,103.59z"/>
	</g>
	<g>
		
			<rect x="361.71" y="88.241" transform="matrix(0.5646 0.8254 -0.8254 0.5646 238.8859 -262.7734)" fill="#9FD142" width="13.556" height="13.556"/>
		<path fill="#1C1C1C" d="M366.723,106.363c-0.613,0-1.216-0.293-1.589-0.838l-7.653-11.189c-0.599-0.875-0.375-2.071,0.502-2.671
			l11.189-7.653c0.876-0.598,2.072-0.374,2.672,0.501l7.652,11.189c0.6,0.876,0.375,2.072-0.501,2.672l-11.189,7.653
			C367.474,106.254,367.096,106.363,366.723,106.363z M361.739,93.753l5.482,8.016l8.017-5.482l-5.482-8.017L361.739,93.753z"/>
	</g>
	<g id="XMLID_5_">
		<g>
			<path fill="#1C1C1C" d="M412.895,49.526c0.659,0.983,0.413,2.324-0.57,2.994l-12.501,8.547c-0.368,0.257-0.793,0.368-1.206,0.368
				c-0.682,0-1.352-0.324-1.776-0.927l-8.546-12.501c-0.671-0.983-0.425-2.313,0.559-2.983l12.5-8.558
				c0.983-0.659,2.313-0.413,2.983,0.559L412.895,49.526z M408.135,50.186l-6.133-8.959l-8.948,6.122l6.122,8.959L408.135,50.186z"
				/>
			<polygon fill="#FFF200" points="402.002,41.227 408.135,50.186 399.176,56.308 393.054,47.349 			"/>
		</g>
	</g>
	<g>
		
			<rect x="358.978" y="48.26" transform="matrix(0.5646 0.8254 -0.8254 0.5646 202.346 -277.198)" fill="#27AAE1" width="9.861" height="9.861"/>
		<path fill="#1C1C1C" d="M362.624,61.441c-0.445,0-0.884-0.214-1.155-0.609l-5.567-8.139c-0.436-0.638-0.272-1.508,0.365-1.943
			l8.139-5.567c0.638-0.435,1.508-0.271,1.943,0.365l5.567,8.139c0.436,0.638,0.272,1.508-0.365,1.943l-8.139,5.567
			C363.171,61.361,362.896,61.441,362.624,61.441z M358.999,52.269l3.988,5.831l5.831-3.988l-3.988-5.831L358.999,52.269z"/>
	</g>
	<g>
		
			<rect x="366.927" y="31.27" transform="matrix(0.5646 0.8254 -0.8254 0.5646 191.6615 -291.1199)" fill="#F58320" width="9.653" height="9.653"/>
		<path fill="#1C1C1C" d="M370.496,44.175c-0.437,0-0.865-0.209-1.131-0.597l-5.45-7.968c-0.427-0.624-0.267-1.476,0.357-1.902
			l7.968-5.45c0.625-0.426,1.476-0.267,1.902,0.357l5.451,7.968c0.426,0.624,0.267,1.476-0.357,1.902l-7.969,5.45
			C371.031,44.097,370.763,44.175,370.496,44.175z M366.947,35.194l3.904,5.709l5.709-3.904l-3.904-5.709L366.947,35.194z"/>
	</g>
</g>
<g>
	<path fill="#1C1C1C" d="M40.496,169.591c-0.256-4.85-0.59-8.806-1.005-11.868c6.253,2.84,11.932,4.259,17.036,4.259
		c2.042,0,3.949-0.311,5.719-0.933c1.771-0.622,3.078-1.499,3.924-2.632s1.27-2.4,1.27-3.805c0-1.084-0.204-2.058-0.611-2.919
		c-0.609-1.181-1.626-2.409-3.049-3.686c-1.824-1.754-5.077-4.642-9.761-8.661c-2.231-1.946-3.772-3.334-4.621-4.164
		c-1.914-1.818-3.382-3.453-4.403-4.905c-1.021-1.451-1.754-2.895-2.201-4.33s-0.67-2.968-0.67-4.595
		c0-2.998,0.838-5.814,2.513-8.446s4.179-4.689,7.513-6.173s7.537-2.226,12.61-2.226c4.562,0,9.698,0.559,15.409,1.675
		c0.16,3.318,0.479,7.115,0.957,11.39c-4.967-1.914-9.552-2.871-13.755-2.871c-3.121,0-5.677,0.71-7.666,2.129
		c-1.99,1.42-2.985,3.071-2.985,4.953c0,0.511,0.069,1.046,0.209,1.604c0.139,0.559,0.346,1.101,0.623,1.627
		c0.278,0.526,0.772,1.213,1.483,2.058c0.711,0.846,1.752,1.835,3.122,2.967c1.371,1.133,2.541,2.051,3.513,2.752l5.905,5.36
		c1.496,1.244,2.834,2.457,4.012,3.637c1.179,1.181,2.189,2.313,3.033,3.397c0.844,1.085,1.504,2.122,1.982,3.11
		c0.478,0.989,0.836,2.003,1.074,3.039c0.239,1.037,0.359,2.13,0.359,3.278c0,2.68-0.623,5.209-1.867,7.585
		c-1.244,2.377-3.031,4.331-5.359,5.862c-2.329,1.531-4.881,2.592-7.656,3.183c-2.776,0.59-5.712,0.885-8.807,0.885
		c-2.041,0-4.418-0.176-7.13-0.526C48.504,171.249,44.931,170.58,40.496,169.591z"/>
	<path fill="#1C1C1C" d="M91.559,170.979l1.141-15.553l1.143-22.253l0.666-27.517c2.812,0.064,5.143,0.096,6.996,0.096
		c2.427,0,4.742-0.031,6.947-0.096l-0.865,11.39c-0.191,2.808-0.447,7.321-0.768,13.543c1.021-1.531,1.874-2.68,2.561-3.445
		c0.686-0.766,1.452-1.476,2.298-2.13c0.845-0.653,1.714-1.204,2.608-1.651c0.893-0.446,1.938-0.845,3.135-1.196
		c1.196-0.351,2.527-0.622,3.996-0.813c1.468-0.191,2.968-0.287,4.5-0.287c2.647,0,5.191,0.304,7.633,0.909
		c2.441,0.606,4.547,1.627,6.318,3.063c1.771,1.436,2.983,3.118,3.638,5.048c0.653,1.931,0.981,3.948,0.981,6.054
		c0,1.372-0.082,3.51-0.242,6.413l-1.16,20.912c-0.098,2.17-0.146,4.675-0.146,7.514c-2.581-0.063-4.86-0.096-6.835-0.096
		c-2.137,0-4.574,0.032-7.314,0.096c0.441-3.764,0.877-8.901,1.303-15.409c0.426-6.509,0.639-11.134,0.639-13.878
		c0-2.521-0.405-4.49-1.217-5.91c-0.813-1.419-2.008-2.472-3.584-3.158s-3.305-1.029-5.182-1.029c-2.422,0-4.555,0.431-6.402,1.292
		c-1.783,0.83-3.281,2.074-4.49,3.732c-0.987,1.372-1.816,3.335-2.484,5.887c-0.701,2.68-1.21,6.827-1.528,12.442
		c-0.163,2.712-0.342,8.056-0.536,16.031c-2.523-0.063-4.695-0.096-6.516-0.096C97.066,170.883,94.655,170.915,91.559,170.979z"/>
	<path fill="#1C1C1C" d="M158.268,132.981c0.446-2.297,0.726-3.907,0.838-4.833c0.111-0.925,0.311-2.329,0.598-4.212
		c4.338-1.021,8.167-1.738,11.485-2.153c3.317-0.414,6.524-0.622,9.619-0.622c3.509,0,6.73,0.407,9.667,1.221
		c2.935,0.813,5.231,2.113,6.891,3.9c1.658,1.787,2.488,4.354,2.488,7.704c0,1.818-0.253,6.453-0.76,13.902
		c-0.508,7.449-0.809,15.146-0.903,23.09c-2.428-0.063-4.662-0.096-6.705-0.096c-1.949,0-4.231,0.032-6.85,0.096
		c0.42-3.859,0.759-8.327,1.017-13.399l0.629-11.916c-1.213,0.798-2.139,1.356-2.777,1.675c-0.639,0.319-1.357,0.615-2.156,0.886
		c-0.798,0.271-2.203,0.687-4.215,1.244c-2.011,0.559-3.624,1.045-4.837,1.459c-1.214,0.415-2.308,0.886-3.28,1.412
		c-0.975,0.526-1.797,1.117-2.467,1.771c-0.672,0.654-1.158,1.34-1.462,2.058s-0.454,1.492-0.454,2.321
		c0,1.34,0.391,2.497,1.172,3.47c0.781,0.974,1.763,1.65,2.943,2.033c1.18,0.384,2.568,0.575,4.163,0.575
		c1.021,0,2.098-0.08,3.23-0.24c1.132-0.159,2.656-0.558,4.57-1.196c-0.67,1.819-1.452,4.531-2.345,8.136
		c-2.266,0.383-4.068,0.622-5.408,0.718s-2.584,0.144-3.732,0.144c-4.02,0-7.322-0.543-9.906-1.627s-4.49-2.807-5.719-5.168
		s-1.842-4.738-1.842-7.131c0-1.371,0.238-2.728,0.717-4.067s1.182-2.568,2.107-3.686c0.926-1.116,2.123-2.192,3.592-3.229
		s3.592-2.042,6.369-3.016c2.776-0.973,6.447-1.953,11.013-2.942c1.213-0.255,2.475-0.566,3.783-0.934
		c1.309-0.366,2.354-0.726,3.137-1.076s1.46-0.806,2.034-1.364c0.574-0.558,0.997-1.141,1.269-1.747
		c0.271-0.605,0.408-1.228,0.408-1.866c0-1.244-0.408-2.297-1.222-3.158c-0.814-0.861-1.867-1.46-3.16-1.795
		c-1.294-0.335-2.723-0.502-4.287-0.502C171.709,128.818,165.292,130.206,158.268,132.981z"/>
	<path fill="#1C1C1C" d="M210.143,170.979l0.953-12.442l1.096-23.88l0.524-20.434c0.063-3.701,0.095-6.557,0.095-8.566
		c3.341,0.064,5.712,0.096,7.112,0.096c1.653,0,3.833-0.031,6.539-0.096l-1.001,15.553l-1.144,24.789l-0.476,18.521l-0.048,6.46
		c-2.833-0.063-5.061-0.096-6.683-0.096C215.266,170.883,212.942,170.915,210.143,170.979z M225.361,143.725l9.753-11.854
		c0.833-1.02,1.826-2.278,2.979-3.775c1.152-1.498,2.61-3.427,4.372-5.785c3.313,0.064,5.734,0.096,7.265,0.096
		c2.103,0,4.762-0.031,7.98-0.096l-15.771,18.069l-2.828,3.441c2.332,3.705,8.804,12.758,19.412,27.158
		c-2.875-0.063-5.335-0.096-7.38-0.096c-2.044,0-4.584,0.032-7.618,0.096c-1.854-3.033-3.363-5.468-4.53-7.304
		c-1.166-1.837-2.244-3.441-3.234-4.814l-8.147-11.639C227.39,146.903,226.639,145.737,225.361,143.725z"/>
	<path fill="#1C1C1C" d="M307.385,160.115c-0.415,1.883-1.005,5.265-1.771,10.146c-3.445,0.733-6.349,1.228-8.709,1.483
		c-2.361,0.255-4.738,0.383-7.131,0.383c-4.18,0-7.92-0.415-11.222-1.242c-3.302-0.829-6.197-2.352-8.686-4.566
		s-4.323-4.933-5.504-8.151s-1.771-6.599-1.771-10.137c0-3.919,0.686-7.72,2.058-11.402c1.372-3.681,3.294-6.692,5.767-9.036
		c2.473-2.343,5.288-4,8.446-4.973c3.159-0.972,6.461-1.458,9.906-1.458c3.254,0,6.349,0.406,9.284,1.219
		c2.935,0.812,5.399,2.141,7.394,3.988c1.993,1.847,3.524,4.068,4.594,6.663c1.068,2.595,1.604,5.485,1.604,8.669
		c0,1.497-0.16,3.041-0.479,4.633l-35.078,0.048c-0.064,1.181-0.096,2.122-0.096,2.823c0,2.138,0.366,4.101,1.101,5.887
		c0.733,1.787,1.803,3.302,3.207,4.546c1.403,1.244,3.078,2.162,5.024,2.752c1.945,0.591,3.859,0.885,5.742,0.885
		c2.202,0,4.586-0.239,7.154-0.718S303.843,161.264,307.385,160.115z M276.47,140.782l22.396,0.048c0-1.525-0.048-2.653-0.144-3.385
		c-0.096-0.73-0.312-1.564-0.646-2.502c-0.335-0.937-0.789-1.763-1.363-2.478s-1.244-1.311-2.01-1.787s-1.651-0.842-2.656-1.097
		c-1.005-0.254-2.082-0.381-3.23-0.381c-1.34,0-2.64,0.207-3.9,0.62c-1.261,0.412-2.416,1.017-3.469,1.811s-1.907,1.684-2.561,2.669
		c-0.654,0.985-1.141,1.931-1.46,2.836S276.788,139.258,276.47,140.782z"/>
</g>
</svg>
