<?xml version="1.0" encoding="utf-8"?>
<!-- Generator: Adobe Illustrator 16.0.0, SVG Export Plug-In . SVG Version: 6.00 Build 0)  -->
<!DOCTYPE svg PUBLIC "-//W3C//DTD SVG 1.1//EN" "http://www.w3.org/Graphics/SVG/1.1/DTD/svg11.dtd">
<svg version="1.1" id="Layer_1" xmlns="http://www.w3.org/2000/svg" xmlns:xlink="http://www.w3.org/1999/xlink" x="0px" y="0px"
	 width="300px" height="300px" viewBox="0 0 300 300" enable-background="new 0 0 300 300" xml:space="preserve">
<g>
	<g>
		<path d="M146.78,173.69c-0.221,0-0.441-0.02-0.66-0.061c-0.982-0.185-1.843-0.771-2.374-1.616L89.951,86.336
			c-0.757-1.205-0.728-2.744,0.073-3.92c0.802-1.177,2.221-1.764,3.622-1.505l134.988,25.329c1.398,0.262,2.51,1.328,2.83,2.715
			c0.319,1.387-0.211,2.832-1.354,3.681l-81.193,60.348C148.295,173.446,147.544,173.69,146.78,173.69z M100.374,89.463
			l47.379,75.459l71.512-53.15L100.374,89.463z"/>
	</g>
	<g>
		<path d="M134.857,237.251c-0.22,0-0.441-0.021-0.665-0.063c-1.944-0.364-3.225-2.236-2.859-4.181l12.496-66.597
			c0.364-1.944,2.239-3.228,4.181-2.86c1.944,0.364,3.226,2.237,2.86,4.181l-12.497,66.597
			C138.051,236.049,136.547,237.251,134.857,237.251z"/>
	</g>
	<g>
		<path d="M157.572,244.011c-0.219,0-0.441-0.02-0.664-0.062l-49.225-9.236c-1.944-0.364-3.225-2.237-2.86-4.181
			c0.365-1.944,2.234-3.227,4.182-2.861l49.224,9.236c1.945,0.364,3.226,2.237,2.86,4.181
			C160.766,242.81,159.262,244.011,157.572,244.011z"/>
	</g>
	<g>
		<path d="M180.952,141.62c-6.648,0-14.939-2.01-24.236-8.616c-19.935-14.161-38.904-10.938-39.093-10.901
			c-1.947,0.35-3.81-0.941-4.162-2.888c-0.352-1.947,0.94-3.811,2.888-4.163c0.894-0.16,22.151-3.777,44.516,12.112
			c18.853,13.395,31.963,4.245,32.513,3.85c1.598-1.153,3.834-0.807,4.996,0.781s0.837,3.81-0.743,4.982
			C197.204,137.096,190.927,141.619,180.952,141.62z"/>
	</g>
	<g>
		
			<rect x="151.893" y="120.167" transform="matrix(0.5646 0.8254 -0.8254 0.5646 177.2647 -76.7405)" fill="#9FD142" width="18.947" height="18.948"/>
		<path d="M158.898,145.496c-0.857,0-1.699-0.409-2.221-1.17l-10.697-15.64c-0.837-1.225-0.523-2.896,0.701-3.734l15.64-10.697
			c1.226-0.835,2.896-0.522,3.734,0.701l10.697,15.64c0.837,1.225,0.523,2.896-0.701,3.734l-15.64,10.697
			C159.948,145.344,159.421,145.496,158.898,145.496z M151.933,127.871l7.664,11.204l11.204-7.663l-7.664-11.205L151.933,127.871z"
			/>
	</g>
	<g>
		<g id="XMLID_2_">
			<g>
				<path d="M223.433,66.056c0.922,1.374,0.578,3.248-0.796,4.185l-17.473,11.945c-0.516,0.359-1.109,0.516-1.687,0.516
					c-0.952,0-1.89-0.453-2.482-1.297L189.05,63.932c-0.938-1.374-0.594-3.232,0.78-4.169l17.473-11.961
					c1.374-0.921,3.232-0.577,4.17,0.781L223.433,66.056z M216.781,66.977l-8.572-12.522l-12.508,8.557l8.557,12.522L216.781,66.977
					z"/>
				<polygon fill="#FFF200" points="208.209,54.454 216.781,66.977 204.258,75.533 195.701,63.011 				"/>
			</g>
		</g>
	</g>
	<g>
		
			<rect x="148.074" y="64.284" transform="matrix(0.5646 0.8254 -0.8254 0.5646 126.2237 -96.9142)" fill="#27AAE1" width="13.783" height="13.783"/>
		<path d="M153.17,82.708c-0.623,0-1.235-0.298-1.615-0.851l-7.781-11.376c-0.608-0.891-0.381-2.107,0.511-2.717l11.376-7.781
			c0.891-0.607,2.106-0.38,2.716,0.511l7.781,11.376c0.608,0.891,0.381,2.106-0.51,2.716l-11.376,7.781
			C153.934,82.598,153.55,82.708,153.17,82.708z M148.104,69.888l5.574,8.149l8.15-5.574l-5.574-8.149L148.104,69.888z"/>
	</g>
	<g>
		
			<rect x="159.184" y="40.537" transform="matrix(0.5645 0.8254 -0.8254 0.5645 111.2826 -116.3694)" fill="#F58320" width="13.493" height="13.493"/>
		<path d="M164.173,58.574c-0.61,0-1.21-0.291-1.581-0.833l-7.617-11.137c-0.597-0.872-0.373-2.063,0.499-2.659l11.137-7.618
			c0.873-0.595,2.063-0.372,2.659,0.499l7.618,11.138c0.596,0.872,0.373,2.063-0.499,2.659l-11.138,7.618
			C164.921,58.467,164.545,58.574,164.173,58.574z M159.213,46.023l5.457,7.979l7.979-5.457l-5.458-7.979L159.213,46.023z"/>
	</g>
</g>
<path fill="none" stroke="#000000" stroke-width="5" stroke-miterlimit="10" d="M79.193,72.616c0,0-10.592,2.457-8.27,15.269"/>
<path fill="none" stroke="#000000" stroke-width="5" stroke-miterlimit="10" d="M70.619,63.186c0,0-14.165,3.547-10.748,20.695"/>
<path fill="none" stroke="#000000" stroke-width="5" stroke-miterlimit="10" d="M178.598,240.17c0,0,10.592-2.458,8.27-15.269"/>
<path fill="none" stroke="#000000" stroke-width="5" stroke-miterlimit="10" d="M181.646,256.37c0,0,24.558-6.149,18.633-35.878"/>
</svg>
